<svg xmlns="http://www.w3.org/2000/svg"  viewBox="0 0 64 64" width="25px" height="25px"><ellipse cx="32" cy="61" opacity=".3" rx="20" ry="3"/><path fill="#fd3c4f" d="M42.963,30l8.136-8.135c1.562-1.562,1.562-4.095,0-5.657l-5.306-5.306	c-1.562-1.562-4.095-1.562-5.657,0L32,19.038l-8.136-8.136c-1.562-1.562-4.095-1.562-5.657,0l-5.306,5.306	c-1.562,1.562-1.562,4.095,0,5.657L21.037,30l-8.135,8.135c-1.562,1.562-1.562,4.095,0,5.657l5.305,5.306	c1.562,1.562,4.095,1.562,5.657,0L32,40.963l8.136,8.135c1.562,1.562,4.095,1.562,5.657,0l5.305-5.306	c1.562-1.562,1.562-4.095,0-5.657L42.963,30z"/><path d="M40.135,49.098c1.562,1.562,4.095,1.562,5.657,0l5.306-5.306	c1.562-1.562,1.562-4.095,0-5.657l-8.136-8.135l3.535-3.535l0,0C45.521,25.488,44.242,25,42.962,25c-1.224,0-2.448,0.447-3.406,1.34	c-2.084,1.943-1.973,5.352,0.042,7.366l7.257,7.256l-3.892,3.892l-7.275-7.274c-1.847-1.847-4.846-2.146-6.86-0.484	c-2.31,1.907-2.432,5.334-0.365,7.402l3.536-3.536L40.135,49.098z" opacity=".15"/><path fill="#fff" d="M23.864,10.902c-1.562-1.562-4.095-1.562-5.657,0	l-5.306,5.306c-1.562,1.562-1.562,4.095,0,5.657L21.037,30l-3.535,3.535l0,0C18.478,34.512,19.757,35,21.037,35	c1.224,0,2.448-0.447,3.406-1.34c2.084-1.943,1.973-5.352-0.042-7.366l-7.257-7.256l3.892-3.892l7.275,7.274	c1.847,1.846,4.846,2.146,6.86,0.484c2.31-1.907,2.432-5.334,0.365-7.402L32,19.038L23.864,10.902z" opacity=".3"/><polyline fill="none" stroke="#fff" stroke-linecap="round" stroke-linejoin="round" stroke-miterlimit="10" stroke-width="3" points="18.5,15.5 21,13 23.5,15.5"/></svg>